<svg width="517" height="324" viewBox="0 0 517 324" fill="none" xmlns="http://www.w3.org/2000/svg">
<g filter="url(#filter0_f_103_37)">
<g filter="url(#filter1_d_103_37)">
<path d="M386.345 249H194.913C176.343 248.986 158.498 241.789 145.114 228.915C131.73 216.041 123.845 198.489 123.109 179.933C122.374 161.377 128.845 143.256 141.168 129.364C153.491 115.471 170.71 106.884 189.221 105.4C191.861 86.7599 200.278 69.4166 213.289 55.8099C226.299 42.2032 243.248 33.0179 261.752 29.5463C280.255 26.0747 299.381 28.4915 316.439 36.4567C333.497 44.4218 347.628 57.5345 356.845 73.9499C373.75 68.0981 392.015 67.4142 409.31 71.9856C426.605 76.557 442.146 86.1764 453.952 99.6169C465.757 113.057 473.292 129.71 475.594 147.45C477.896 165.19 474.862 183.214 466.879 199.223C462.194 213.688 453.047 226.296 440.751 235.239C428.455 244.182 413.641 249 398.437 249H386.345Z" fill="url(#paint0_linear_103_37)"/>
<path d="M398.437 248C406.157 248 413.748 246.767 420.998 244.336C428.009 241.985 434.59 238.554 440.56 234.139C446.462 229.775 451.635 224.547 455.936 218.6C460.29 212.58 463.652 205.957 465.928 198.915L465.951 198.843L465.985 198.775C469.011 192.728 471.341 186.33 472.911 179.761C474.526 173 475.345 166.015 475.345 158.999C475.345 152.96 474.737 146.925 473.537 141.062C472.368 135.348 470.623 129.728 468.352 124.357C466.121 119.084 463.361 113.997 460.146 109.24C456.962 104.527 453.306 100.095 449.278 96.0672C445.25 92.0395 440.819 88.3828 436.106 85.1988C431.348 81.9845 426.261 79.2237 420.988 76.9932C415.617 74.7216 409.997 72.9769 404.283 71.8077C398.42 70.6079 392.385 69.9995 386.345 69.9995C376.346 69.9995 366.531 71.6452 357.172 74.8908L356.383 75.1646L355.973 74.4362C348.357 60.8943 337.279 49.5217 323.937 41.5479C317.189 37.5153 309.94 34.399 302.391 32.2857C294.602 30.1055 286.512 29 278.345 29C267.361 29 256.638 30.977 246.475 34.876C236.657 38.6427 227.65 44.0837 219.705 51.048C211.806 57.9722 205.251 66.1422 200.221 75.3308C195.069 84.7451 191.701 94.9073 190.211 105.535L190.1 106.33L189.299 106.393C180.341 107.094 171.722 109.453 163.682 113.403C155.869 117.242 148.893 122.434 142.947 128.834C130.729 141.987 124 159.123 124 177.087C124 186.66 125.875 195.947 129.572 204.689C131.349 208.891 133.549 212.943 136.11 216.734C138.647 220.489 141.561 224.02 144.77 227.23C147.979 230.439 151.51 233.352 155.266 235.889C159.056 238.45 163.109 240.65 167.311 242.427C176.052 246.125 185.339 248 194.913 248H386.345H398.437ZM398.437 249H386.345H194.913C155.197 249 123 216.803 123 177.087C123 139.286 152.165 108.297 189.221 105.396C195.35 61.6574 232.917 28 278.345 28C312.048 28 341.422 46.5232 356.845 73.946C366.087 70.7407 376.012 68.9995 386.345 68.9995C436.051 68.9995 476.345 109.294 476.345 158.999C476.345 173.456 472.936 187.118 466.879 199.223C457.544 228.108 430.431 249 398.437 249Z" fill="white" fill-opacity="0.5"/>
</g>
</g>
<g filter="url(#filter2_f_103_37)">
<g filter="url(#filter3_d_103_37)">
<path d="M283.345 292H91.913C73.3426 291.986 55.4976 284.789 42.1137 271.915C28.7298 259.041 20.8447 241.489 20.1092 222.933C19.3737 204.377 25.8448 186.256 38.1677 172.364C50.4906 158.471 67.71 149.884 86.221 148.4C88.8608 129.76 97.2781 112.417 110.289 98.8099C123.299 85.2032 140.248 76.0179 158.752 72.5463C177.255 69.0747 196.381 71.4915 213.439 79.4567C230.497 87.4218 244.628 100.535 253.845 116.95C270.75 111.098 289.015 110.414 306.31 114.986C323.605 119.557 339.146 129.176 350.952 142.617C362.757 156.057 370.292 172.71 372.594 190.45C374.896 208.19 371.862 226.214 363.879 242.223C359.194 256.688 350.047 269.296 337.751 278.239C325.455 287.182 310.641 292 295.437 292H283.345Z" fill="url(#paint1_linear_103_37)"/>
<path d="M295.437 291C303.157 291 310.748 289.767 317.998 287.336C325.009 284.985 331.59 281.554 337.56 277.139C343.462 272.775 348.635 267.547 352.936 261.6C357.29 255.58 360.652 248.957 362.928 241.915L362.951 241.843L362.985 241.775C366.011 235.728 368.341 229.33 369.911 222.761C371.526 216 372.345 209.015 372.345 201.999C372.345 195.96 371.737 189.925 370.537 184.062C369.368 178.348 367.623 172.728 365.352 167.357C363.121 162.084 360.361 156.997 357.146 152.24C353.962 147.527 350.306 143.095 346.278 139.067C342.25 135.039 337.819 131.383 333.106 128.199C328.348 124.984 323.261 122.224 317.988 119.993C312.617 117.722 306.997 115.977 301.283 114.808C295.42 113.608 289.385 113 283.345 113C273.346 113 263.531 114.645 254.172 117.891L253.383 118.165L252.973 117.436C245.357 103.894 234.279 92.5217 220.937 84.5479C214.189 80.5153 206.94 77.399 199.391 75.2857C191.602 73.1055 183.512 72 175.345 72C164.361 72 153.638 73.977 143.475 77.876C133.657 81.6427 124.65 87.0837 116.705 94.048C108.806 100.972 102.251 109.142 97.2213 118.331C92.0685 127.745 88.7006 137.907 87.2113 148.535L87.0998 149.33L86.299 149.393C77.3408 150.094 68.7219 152.453 60.6818 156.403C52.8694 160.242 45.8932 165.434 39.947 171.834C27.7289 184.987 21 202.123 21 220.087C21 229.66 22.8748 238.947 26.5723 247.689C28.3495 251.891 30.5491 255.943 33.1102 259.734C35.6472 263.489 38.5607 267.02 41.7699 270.23C44.9791 273.439 48.5104 276.352 52.2655 278.889C56.0565 281.45 60.109 283.65 64.3106 285.427C73.0525 289.125 82.3391 291 91.9127 291H283.345H295.437ZM295.437 292H283.345H91.9127C52.1966 292 20 259.803 20 220.087C20 182.286 49.1646 151.297 86.221 148.396C92.3504 104.657 129.917 71 175.345 71C209.048 71 238.422 89.5232 253.845 116.946C263.087 113.741 273.012 112 283.345 112C333.051 112 373.345 152.294 373.345 201.999C373.345 216.456 369.936 230.118 363.879 242.223C354.544 271.108 327.431 292 295.437 292Z" fill="white" fill-opacity="0.5"/>
</g>
</g>
<defs>
<filter id="filter0_f_103_37" x="119" y="24" width="361.345" height="229" filterUnits="userSpaceOnUse" color-interpolation-filters="sRGB">
<feFlood flood-opacity="0" result="BackgroundImageFix"/>
<feBlend mode="normal" in="SourceGraphic" in2="BackgroundImageFix" result="shape"/>
<feGaussianBlur stdDeviation="2" result="effect1_foregroundBlur_103_37"/>
</filter>
<filter id="filter1_d_103_37" x="103" y="0" width="413.345" height="281" filterUnits="userSpaceOnUse" color-interpolation-filters="sRGB">
<feFlood flood-opacity="0" result="BackgroundImageFix"/>
<feColorMatrix in="SourceAlpha" type="matrix" values="0 0 0 0 0 0 0 0 0 0 0 0 0 0 0 0 0 0 127 0" result="hardAlpha"/>
<feOffset dx="10" dy="2"/>
<feGaussianBlur stdDeviation="15"/>
<feColorMatrix type="matrix" values="0 0 0 0 0.501961 0 0 0 0 0.501961 0 0 0 0 0.501961 0 0 0 0.302 0"/>
<feBlend mode="normal" in2="BackgroundImageFix" result="effect1_dropShadow_103_37"/>
<feBlend mode="normal" in="SourceGraphic" in2="effect1_dropShadow_103_37" result="shape"/>
</filter>
<filter id="filter2_f_103_37" x="16" y="67" width="361.345" height="229" filterUnits="userSpaceOnUse" color-interpolation-filters="sRGB">
<feFlood flood-opacity="0" result="BackgroundImageFix"/>
<feBlend mode="normal" in="SourceGraphic" in2="BackgroundImageFix" result="shape"/>
<feGaussianBlur stdDeviation="2" result="effect1_foregroundBlur_103_37"/>
</filter>
<filter id="filter3_d_103_37" x="0" y="43" width="413.345" height="281" filterUnits="userSpaceOnUse" color-interpolation-filters="sRGB">
<feFlood flood-opacity="0" result="BackgroundImageFix"/>
<feColorMatrix in="SourceAlpha" type="matrix" values="0 0 0 0 0 0 0 0 0 0 0 0 0 0 0 0 0 0 127 0" result="hardAlpha"/>
<feOffset dx="10" dy="2"/>
<feGaussianBlur stdDeviation="15"/>
<feColorMatrix type="matrix" values="0 0 0 0 0.258824 0 0 0 0 0.627451 0 0 0 0 0.941176 0 0 0 0.596 0"/>
<feBlend mode="normal" in2="BackgroundImageFix" result="effect1_dropShadow_103_37"/>
<feBlend mode="normal" in="SourceGraphic" in2="effect1_dropShadow_103_37" result="shape"/>
</filter>
<linearGradient id="paint0_linear_103_37" x1="299.698" y1="28.0024" x2="402.341" y2="276.166" gradientUnits="userSpaceOnUse">
<stop stop-color="white" stop-opacity="0.604"/>
<stop offset="1" stop-color="white" stop-opacity="0.2"/>
</linearGradient>
<linearGradient id="paint1_linear_103_37" x1="196.698" y1="71.0024" x2="299.341" y2="319.166" gradientUnits="userSpaceOnUse">
<stop stop-color="white" stop-opacity="0.604"/>
<stop offset="1" stop-color="white" stop-opacity="0.2"/>
</linearGradient>
</defs>
</svg>
